<?xml version="1.0" standalone="no"?>
<!DOCTYPE svg PUBLIC "-//W3C//DTD SVG 20010904//EN"
 "http://www.w3.org/TR/2001/REC-SVG-20010904/DTD/svg10.dtd">
<svg version="1.0" xmlns="http://www.w3.org/2000/svg"
 width="500.000000pt" height="500.000000pt" viewBox="0 0 500.000000 500.000000"
 preserveAspectRatio="xMidYMid meet">
<metadata>
Created by potrace 1.14, written by Peter Selinger 2001-2017
</metadata>
<g transform="translate(0.000000,500.000000) scale(0.100000,-0.100000)"
fill="#000000" stroke="none">
<path d="M2450 4566 c-19 -7 -39 -14 -45 -16 -16 -4 -25 -7 -160 -49 -71 -23
-136 -41 -142 -41 -7 0 -13 -4 -13 -10 0 -5 -3 -9 -7 -8 -13 4 -123 -25 -123
-31 0 -4 -8 -7 -17 -8 -19 -1 -38 -6 -63 -16 -8 -3 -69 -22 -135 -42 -66 -20
-127 -39 -135 -42 -8 -4 -17 -7 -20 -8 -89 -23 -110 -30 -110 -37 0 -5 -4 -7
-9 -4 -8 5 -52 -6 -96 -24 -31 -13 -190 -60 -203 -60 -7 0 -12 -4 -12 -8 0 -4
-8 -8 -17 -9 -10 0 -63 -15 -118 -32 -55 -18 -107 -34 -115 -36 -8 -2 -16 -4
-17 -5 -2 -2 -6 -3 -10 -4 -5 -2 -28 -9 -53 -16 -25 -7 -47 -14 -50 -15 -29
-6 -120 -39 -121 -44 -7 -44 -14 -106 -26 -226 -3 -38 -7 -203 -7 -365 0 -270
4 -363 19 -490 4 -25 6 -52 6 -60 1 -13 9 -70 24 -173 3 -17 8 -49 10 -71 3
-21 8 -42 11 -47 3 -6 8 -26 10 -47 3 -20 12 -62 20 -92 8 -30 17 -68 20 -85
3 -16 8 -37 11 -45 3 -8 8 -26 10 -40 2 -13 7 -27 11 -30 6 -5 11 -24 14 -57
1 -7 5 -13 10 -13 4 0 7 -3 6 -7 -4 -19 15 -83 25 -83 6 0 8 -3 4 -6 -5 -6 17
-72 53 -159 7 -16 14 -36 16 -44 1 -8 6 -17 11 -20 4 -3 10 -15 11 -26 2 -11
8 -21 13 -23 5 -2 9 -9 9 -14 0 -19 33 -88 43 -88 4 0 5 -5 2 -10 -4 -6 -1
-18 6 -27 18 -21 36 -52 50 -85 6 -16 15 -28 21 -28 5 0 6 -4 3 -10 -3 -5 -3
-10 2 -10 4 0 14 -13 21 -28 6 -16 21 -38 32 -50 12 -12 17 -22 13 -22 -4 0 1
-7 12 -16 11 -8 19 -17 18 -19 -6 -12 10 -34 20 -28 5 3 7 2 4 -4 -4 -5 3 -19
13 -31 11 -12 20 -26 20 -32 0 -5 4 -10 8 -10 4 0 15 -12 24 -27 10 -16 37
-50 62 -78 25 -27 46 -53 46 -57 0 -5 6 -8 14 -8 8 0 18 -5 22 -12 5 -7 2 -9
-7 -4 -8 4 6 -11 29 -33 24 -23 48 -41 53 -41 5 0 8 -6 6 -12 -1 -7 4 -12 11
-11 6 2 12 -3 12 -10 0 -15 83 -87 101 -87 7 0 10 -3 6 -6 -8 -8 159 -138 185
-143 4 -1 20 -13 34 -26 15 -14 32 -25 37 -25 6 0 18 -6 26 -14 28 -24 148
-85 155 -79 3 4 6 1 6 -5 0 -7 7 -12 15 -12 8 0 15 -5 15 -11 0 -5 5 -7 10 -4
6 3 10 1 10 -5 0 -7 7 -10 15 -6 8 3 15 2 15 -2 0 -7 97 -53 120 -58 3 0 18
-6 33 -12 15 -7 39 -15 53 -18 13 -3 27 -10 30 -15 3 -5 16 -9 29 -9 13 0 27
-5 30 -11 4 -6 13 -8 21 -5 8 3 14 2 14 -2 0 -4 14 -9 30 -10 17 -1 30 3 30 8
0 6 4 9 9 5 5 -3 12 -1 16 5 4 6 11 8 16 5 5 -4 15 -3 22 2 6 4 19 9 28 10 8
1 29 9 45 18 16 8 37 15 47 15 9 0 17 5 17 10 0 6 8 10 18 10 10 0 27 7 38 15
12 8 24 11 28 8 3 -3 6 -1 6 6 0 7 4 10 9 6 5 -3 15 1 23 8 7 7 15 14 18 14
19 1 50 16 50 24 0 5 3 8 8 7 14 -4 52 13 52 23 0 6 4 8 9 4 5 -3 15 0 23 7 7
7 20 14 28 16 8 2 17 8 18 13 2 5 10 9 18 9 9 0 12 5 8 12 -4 7 -3 8 4 4 12
-7 164 92 195 128 10 12 15 14 11 6 -7 -13 -6 -13 12 0 10 8 32 27 49 42 16
16 34 28 38 28 5 0 5 5 2 10 -3 6 -1 10 6 10 15 0 79 57 72 64 -4 3 0 6 9 6 8
0 53 41 99 91 46 51 92 100 102 110 9 11 15 19 13 19 -2 0 11 17 30 37 19 20
32 39 29 41 -2 3 7 13 20 24 14 11 23 23 20 28 -3 5 -1 11 5 15 16 10 93 127
93 141 0 7 4 11 8 8 5 -3 11 7 15 21 3 14 10 25 15 25 5 0 9 4 9 9 0 6 17 38
37 72 20 35 36 69 36 76 0 7 3 13 7 13 8 0 43 85 40 96 -1 4 3 10 8 13 13 8
54 111 44 111 -4 0 -2 4 4 8 12 8 47 92 38 92 -4 0 -1 7 6 15 7 8 9 15 5 15
-4 0 -3 6 2 12 10 12 39 93 48 134 2 10 18 69 35 129 17 61 33 128 36 150 8
57 12 80 14 80 2 0 7 22 14 70 3 22 8 51 11 65 3 14 7 45 10 70 2 25 7 56 9
69 3 14 8 54 11 90 3 36 8 91 11 121 12 140 17 411 9 590 -5 123 -8 165 -21
265 -3 28 -7 61 -9 74 -3 26 -23 43 -42 36 -7 -2 -13 0 -13 6 0 6 -7 9 -15 6
-8 -4 -17 -2 -19 2 -4 6 -66 28 -106 37 -3 0 -12 4 -20 7 -8 4 -24 8 -35 10
-11 2 -27 7 -35 10 -48 20 -191 61 -202 59 -5 -1 -8 3 -8 9 0 6 -9 9 -20 6
-11 -3 -20 -1 -20 4 0 5 -7 9 -15 9 -8 0 -36 7 -62 16 -26 9 -53 17 -60 18 -7
1 -16 5 -19 9 -4 4 -20 7 -36 7 -15 0 -28 5 -28 10 0 6 -8 10 -17 10 -10 0
-67 16 -128 36 -60 20 -114 37 -120 38 -5 2 -37 11 -70 22 -33 10 -64 19 -70
19 -5 0 -12 3 -15 7 -3 4 -17 8 -30 10 -14 2 -31 7 -37 11 -7 5 -17 5 -23 2
-5 -3 -10 -2 -10 3 0 8 -39 21 -110 37 -8 2 -40 13 -72 23 -31 11 -59 18 -62
15 -3 -4 -6 -2 -6 4 0 6 -12 13 -27 16 -41 7 -61 13 -127 36 -32 11 -62 18
-67 15 -5 -3 -9 0 -9 7 0 7 -3 9 -6 6 -4 -3 -14 -2 -24 3 -31 16 -74 19 -110
6z"/>
</g>
</svg>
